<?xml version="1.0" encoding="UTF-8" standalone="no"?>
<!DOCTYPE svg PUBLIC "-//W3C//DTD SVG 1.1//EN" "http://www.w3.org/Graphics/SVG/1.1/DTD/svg11.dtd">
<svg width="100%" height="100%" viewBox="0 0 2620 2620" version="1.1" xmlns="http://www.w3.org/2000/svg" xmlns:xlink="http://www.w3.org/1999/xlink" xml:space="preserve" xmlns:serif="http://www.serif.com/" style="fill-rule:evenodd;clip-rule:evenodd;stroke-linejoin:round;stroke-miterlimit:2;">
    <g id="Artboard1" transform="matrix(1,0,0,1,-194,-204)">
        <rect x="194" y="204" width="2620" height="2620" style="fill:rgb(42,95,63);"/>
        <g transform="matrix(1.2769,0,0,1.2769,617.9,906.444)">
            <g transform="matrix(1333.33,0,0,1333.33,543.889,1202.65)">
                <path d="M0.669,-0.555C0.669,-0.603 0.644,-0.642 0.605,-0.642C0.599,-0.642 0.573,-0.636 0.572,-0.636C0.549,-0.633 0.527,-0.63 0.503,-0.63C0.496,-0.63 0.463,-0.631 0.402,-0.634L0.402,-0.594C0.509,-0.527 0.552,-0.489 0.598,-0.489C0.634,-0.489 0.669,-0.509 0.669,-0.555ZM0.703,-0.204C0.703,-0.29 0.659,-0.367 0.581,-0.399C0.56,-0.407 0.374,-0.443 0.341,-0.458C0.305,-0.475 0.298,-0.488 0.285,-0.577C0.278,-0.625 0.261,-0.649 0.233,-0.649C0.132,-0.649 0.017,-0.533 0.017,-0.432C0.017,-0.346 0.115,-0.274 0.19,-0.256C0.354,-0.216 0.416,-0.247 0.454,-0.066C0.461,-0.025 0.472,-0.004 0.493,-0.004C0.572,-0.004 0.703,-0.088 0.703,-0.204ZM0.32,-0.012C0.306,-0.059 0.135,-0.178 0.087,-0.178C0.053,-0.178 0.032,-0.139 0.032,-0.088C0.032,-0.046 0.041,-0.018 0.057,-0.001C0.137,-0.009 0.209,-0.012 0.272,-0.012L0.32,-0.012Z" style="fill:white;fill-rule:nonzero;"/>
            </g>
        </g>
        <g transform="matrix(1.2769,0,0,1.2769,-236.632,179.01)">
            <g transform="matrix(1333.33,0,0,1333.33,543.889,1202.65)">
                <path d="M0.78,-0.166C0.78,-0.21 0.694,-0.312 0.692,-0.354C0.743,-0.416 0.768,-0.461 0.768,-0.491C0.768,-0.584 0.619,-0.649 0.519,-0.649C0.467,-0.649 0.422,-0.64 0.422,-0.606C0.422,-0.582 0.517,-0.506 0.517,-0.478C0.517,-0.439 0.412,-0.349 0.41,-0.344C0.413,-0.315 0.514,-0.251 0.514,-0.211C0.514,-0.16 0.406,-0.06 0.406,-0.042C0.406,-0.028 0.421,-0.015 0.448,-0.003L0.605,-0.003C0.691,-0.003 0.78,-0.086 0.78,-0.166ZM0.331,-0.567C0.331,-0.629 0.285,-0.662 0.224,-0.662L0.127,-0.662C0.092,-0.662 0.041,-0.646 0.041,-0.599C0.041,-0.576 0.053,-0.549 0.076,-0.518C0.083,-0.51 0.086,-0.497 0.086,-0.48L0.086,-0.178C0.086,-0.158 0.024,-0.061 0.024,-0.044C0.024,-0.029 0.043,-0.003 0.081,-0.003L0.257,-0.003C0.286,-0.003 0.319,-0.061 0.32,-0.086L0.331,-0.567Z" style="fill:white;fill-rule:nonzero;"/>
            </g>
        </g>
    </g>
</svg>
